<svg id="Layer_1" data-name="Layer 1" xmlns="http://www.w3.org/2000/svg" viewBox="0 0 640 280"><defs><style>.cls-1,.cls-2{fill:#34328f;}.cls-1{fill-rule:evenodd;}</style></defs><path class="cls-1" d="M154.36,9.67a129.88,129.88,0,0,1,107.32,56.2A128,128,0,0,0,171,28.52c-72.16,0-130.89,58.74-130.89,130.89A130.55,130.55,0,0,0,63.71,234.1a131.16,131.16,0,0,1-39.52-94.27C23.83,68,82.21,9.67,154.36,9.67Z"/><path class="cls-1" d="M184.45,266a90.21,90.21,0,0,1-24.65,3.26A108.47,108.47,0,0,1,51.39,160.86c0-58.37,47.49-106.6,106.23-107.69C109,64.78,73.5,107.56,73.5,158.32c0,59.47,49,107.69,109.14,107.69Z"/><path class="cls-1" d="M270.75,189.5c-12,38.44-46.78,66-88.47,66-50.76,0-92.1-41.69-92.1-93.54a97.83,97.83,0,0,1,10.52-43.87c-2.9,8.7-4,18.13-4,27.92,0,51.84,41.33,93.54,92.46,93.54C224.7,239.9,254.79,219.24,270.75,189.5Z"/><polygon class="cls-1" points="606.13 80.73 609.4 91.61 621 91.25 611.57 97.77 615.56 108.65 606.13 101.76 597.43 108.65 601.06 97.77 591.27 91.25 603.23 91.61 606.13 80.73"/><path class="cls-2" d="M193.16,105.39c-20.31,20.3-31.55,48.58-20.31,67.07,25.74,28.65,61.64-3.26,60.55,0l-4,10.52h14.87l27.56-54H229.05l-7.61,16h24.29c-8.34,19.21-54,36.26-55.48,12.69-4.71-48.23,68.17-83,68.17-45h21.39C289.6,65.87,225.79,71.3,193.16,105.39Z"/><path class="cls-2" d="M268.57,168.84l31.91-38.07L312.08,117h15.23l-8.7,66H303.74l2.18-14.14h-5.44l-18.85-.36L270,183.34H255.88Zm21.76-10.15h17l4.35-25.75-10.88,12.69Z"/><polygon class="cls-2" points="373.72 116.99 360.67 116.99 328.76 182.62 374.81 182.62 380.97 171.38 346.89 171.38 373.72 116.99"/><path class="cls-2" d="M396.2,168.48l31.91-38.08,11.6-13.77h15.23L446.6,183H431.73l2.18-14.14h-5.44l-18.85-.36L398,183.34H384.24ZM418,158.69h17l4.35-25.75-10.88,12.69Z"/><polygon class="cls-2" points="528.9 116.99 505.34 140.19 504.25 116.99 487.57 116.99 493.37 149.62 456.39 182.62 473.07 182.62 494.82 161.22 497.72 182.98 513.68 182.98 508.24 149.98 543.77 116.99 528.9 116.99"/><polygon class="cls-2" points="598.88 116.99 569.88 147.81 569.88 116.99 554.28 116.99 557.19 158.69 545.58 182.62 559.72 182.62 570.96 158.32 613.39 116.99 598.88 116.99"/></svg>