<?xml version="1.0" encoding="utf-8"?>
<!-- Generator: Adobe Illustrator 24.1.3, SVG Export Plug-In . SVG Version: 6.00 Build 0)  -->
<svg version="1.1" id="ea61258a-e793-48f7-8624-3c5ca462ffd9"
	 xmlns="http://www.w3.org/2000/svg" xmlns:xlink="http://www.w3.org/1999/xlink" x="0px" y="0px" viewBox="0 0 882.3 779"
	 style="enable-background:new 0 0 882.3 779;" xml:space="preserve">
<style type="text/css">
	.st0{fill:#E6E6E6;}
	.st1{fill:#FFFFFF;}
	.st2{fill:#CCCCCC;}
	.st3{fill:#34328F;}
	.st4{fill:#3F3D56;}
	.st5{fill:#6C63FF;}
	.st6{fill:#2F2E41;}
	.st7{fill:#FFB8B8;}
	.st8{fill:#575A89;}
	.st9{opacity:0.2;enable-background:new    ;}
	.st10{fill:#3F1BEF;}
	.st11{fill:#A80AEA;}
	.st12{fill:#556080;}
	.st13{fill:#F7265D;}
	.st14{fill:#F49711;}
	.st15{fill:#41C909;}
	.st16{fill:#0CEFDE;}
	.st17{fill-rule:evenodd;clip-rule:evenodd;fill:#66C4FF;}
	.st18{fill-rule:evenodd;clip-rule:evenodd;fill:#F966FF;}
	.st19{fill-rule:evenodd;clip-rule:evenodd;fill:#FFD300;}
</style>
<path class="st0" d="M342.4,20.1l3.5-5.4c-1-2.8-2.2-5.6-3.6-8.3L340,8.2l1.8-2.7c-1.7-3.3-3-5.4-3-5.4s-7,11-9.3,22.6l4.5,6.9
	l-4.9-4c-0.2,1.4-0.3,2.7-0.3,4.1c0,13.7,4.5,24.9,10,24.9s10-11.1,10-24.9c-0.1-4.4-0.9-8.7-2.3-12.8L342.4,20.1z"/>
<path class="st0" d="M366.9,32l6.2-1.3c1.3-2.7,2.4-5.5,3.4-8.4l-2.9-0.3l3.2-0.7c1.2-3.6,1.7-6,1.7-6s-12.7,2.8-22.5,9.4l-1.7,8
	l-0.7-6.3c-1.1,0.8-2.1,1.7-3.1,2.7c-9.7,9.7-14.4,20.8-10.5,24.7s15-0.8,24.7-10.5c3-3.2,5.5-6.8,7.5-10.7L366.9,32z"/>
<path class="st0" d="M369.2,85.2c-14.5,0.9-30.3-0.1-47,0V46.8c14.8,2.3,30.6,2.1,47,0V85.2z"/>
<path class="st0" d="M472.8,115.2l2.3-3.5c-0.7-1.9-1.4-3.7-2.3-5.4l-1.5,1.2l1.2-1.8c-1.1-2.2-2-3.5-2-3.5
	c-2.8,4.6-4.8,9.5-6.1,14.7l2.9,4.5l-3.2-2.6c-0.1,0.9-0.2,1.8-0.2,2.7c0,9,2.9,16.2,6.5,16.2s6.5-7.3,6.5-16.2
	c-0.1-2.9-0.6-5.7-1.5-8.4L472.8,115.2z"/>
<path class="st0" d="M488.8,122.9l4.1-0.9c0.8-1.8,1.6-3.6,2.2-5.5l-1.9-0.2l2.1-0.4c0.8-2.3,1.1-3.9,1.1-3.9
	c-5.2,1.2-10.2,3.3-14.7,6.1l-1.1,5.2l-0.4-4.1c-0.7,0.5-1.4,1.1-2,1.8c-6.3,6.3-9.4,13.6-6.9,16.1s9.8-0.5,16.1-6.9
	c2-2.1,3.6-4.4,4.9-7L488.8,122.9z"/>
<path class="st0" d="M490.3,157.6c-9.4,0.6-19.7,0-30.7,0v-25.1c10.2,1.4,20.5,1.4,30.7,0V157.6z"/>
<path class="st0" d="M484.5,231.9c-8.3,0.5-17.4,0-27.1,0v-22.1c9,1.3,18.1,1.3,27.1,0V231.9z"/>
<rect x="167.5" y="82.5" class="st0" width="364.5" height="10.2"/>
<rect x="167.5" y="154.8" class="st0" width="364.5" height="10.2"/>
<rect x="167.5" y="227.1" class="st0" width="364.5" height="10.2"/>
<circle class="st0" cx="471" cy="197.5" r="20.4"/>
<circle class="st1" cx="471" cy="197.5" r="16.3"/>
<circle class="st0" cx="471" cy="197.5" r="4.1"/>
<rect x="468.9" y="196.5" class="st0" width="16.3" height="2"/>
<rect x="469.9" y="183.3" class="st0" width="2" height="16.3"/>
<rect x="339.7" y="105.1" class="st0" width="13.5" height="53.3"/>
<rect x="339.7" y="113.5" class="st2" width="13.5" height="6.2"/>
<rect x="339.7" y="140.5" class="st2" width="13.5" height="6.2"/>
<rect x="319" y="105.1" class="st0" width="13.5" height="53.3"/>
<rect x="319" y="113.5" class="st2" width="13.5" height="6.2"/>
<rect x="319" y="140.5" class="st2" width="13.5" height="6.2"/>
<rect x="363.9" y="105.1" transform="matrix(0.8962 -0.4437 0.4437 0.8962 -19.9681 178.1273)" class="st0" width="13.5" height="53.3"/>
<rect x="357.1" y="115.1" transform="matrix(0.8962 -0.4437 0.4437 0.8962 -14.6725 173.7168)" class="st2" width="13.5" height="6.2"/>
<rect x="369.1" y="139.3" transform="matrix(0.8962 -0.4437 0.4437 0.8962 -24.1517 181.5587)" class="st2" width="13.5" height="6.2"/>
<rect x="219.6" y="177.4" class="st0" width="13.5" height="53.3"/>
<rect x="219.6" y="185.8" class="st2" width="13.5" height="6.2"/>
<rect x="219.6" y="212.8" class="st2" width="13.5" height="6.2"/>
<rect x="198.8" y="177.4" class="st0" width="13.5" height="53.3"/>
<rect x="198.8" y="185.8" class="st2" width="13.5" height="6.2"/>
<rect x="198.8" y="212.8" class="st2" width="13.5" height="6.2"/>
<rect x="243.7" y="177.4" transform="matrix(0.8962 -0.4437 0.4437 0.8962 -64.535 132.3056)" class="st0" width="13.5" height="53.3"/>
<rect x="237" y="187.4" transform="matrix(0.8962 -0.4437 0.4437 0.8962 -59.2104 127.9302)" class="st2" width="13.5" height="6.2"/>
<rect x="248.9" y="211.6" transform="matrix(0.8962 -0.4437 0.4437 0.8962 -68.7187 135.737)" class="st2" width="13.5" height="6.2"/>
<rect x="345.8" y="177.4" class="st0" width="13.5" height="53.3"/>
<rect x="345.8" y="185.8" class="st2" width="13.5" height="6.2"/>
<rect x="345.8" y="212.8" class="st2" width="13.5" height="6.2"/>
<rect x="325.1" y="177.4" class="st0" width="13.5" height="53.3"/>
<rect x="325.1" y="185.8" class="st2" width="13.5" height="6.2"/>
<rect x="325.1" y="212.8" class="st2" width="13.5" height="6.2"/>
<rect x="370" y="177.4" transform="matrix(0.8962 -0.4437 0.4437 0.8962 -51.4158 188.3416)" class="st0" width="13.5" height="53.3"/>
<rect x="363.3" y="187.4" transform="matrix(0.8962 -0.4437 0.4437 0.8962 -46.0911 183.9662)" class="st2" width="13.5" height="6.2"/>
<rect x="375.2" y="211.6" transform="matrix(0.8962 -0.4437 0.4437 0.8962 -55.5994 191.7731)" class="st2" width="13.5" height="6.2"/>
<rect x="450" y="32.6" class="st0" width="53.6" height="53.6"/>
<rect x="460.7" y="43.4" class="st2" width="32.1" height="32.1"/>
<polygon class="st0" points="470,54.1 476.8,65.9 483.6,77.7 470,77.7 456.4,77.7 463.2,65.9 "/>
<polygon class="st0" points="481.8,56.4 488.7,68.2 495.5,80 481.8,80 468.2,80 475,68.2 "/>
<circle class="st0" cx="486.6" cy="49" r="3.9"/>
<rect x="179.1" y="32.6" class="st0" width="53.6" height="53.6"/>
<rect x="189.8" y="43.4" class="st2" width="32.1" height="32.1"/>
<polygon class="st0" points="199.1,54.1 205.9,65.9 212.8,77.7 199.1,77.7 185.5,77.7 192.3,65.9 "/>
<polygon class="st0" points="211,56.4 217.8,68.2 224.6,80 211,80 197.3,80 204.2,68.2 "/>
<circle class="st0" cx="215.8" cy="49" r="3.9"/>
<path class="st3" d="M71.5,397.8l3.5-5.4c-1-2.8-2.2-5.6-3.6-8.3l-2.2,1.8l1.8-2.7c-1.7-3.3-3-5.4-3-5.4s-7,11-9.3,22.6l4.5,6.9
	l-4.9-4c-0.2,1.4-0.3,2.7-0.3,4.1c0,13.7,4.5,24.9,10,24.9s10-11.1,10-24.9c-0.1-4.4-0.9-8.7-2.3-12.8L71.5,397.8z"/>
<path class="st3" d="M96.1,409.8l6.2-1.3c1.3-2.7,2.4-5.5,3.4-8.4l-2.9-0.3l3.2-0.7c1.2-3.6,1.7-6,1.7-6s-12.7,2.8-22.5,9.4l-1.7,8
	l-0.7-6.3c-1.1,0.8-2.1,1.7-3.1,2.7c-9.7,9.7-14.4,20.8-10.5,24.7s15-0.8,24.7-10.5c3-3.2,5.5-6.8,7.5-10.7L96.1,409.8z"/>
<path class="st4" d="M98.3,463c-14.5,0.9-30.3-0.1-47,0v-38.4c14.8,2.3,30.6,2.1,47,0V463z"/>
<rect x="501" y="475" class="st0" width="195.5" height="253.6"/>
<rect x="92.7" y="488.3" class="st0" width="10.2" height="240.3"/>
<rect y="457.7" class="st0" width="696.5" height="20.4"/>
<rect x="87.6" y="478.1" class="st0" width="20.4" height="20.4"/>
<polygon class="st4" points="614.2,489.8 613,494.4 584.5,494.4 582.8,489.8 510.2,489.8 510.2,536.6 687.3,536.6 687.3,489.8 "/>
<polygon class="st4" points="614.2,548.9 613,553.4 584.5,553.4 582.8,548.9 510.2,548.9 510.2,595.7 687.3,595.7 687.3,548.9 "/>
<polygon class="st4" points="614.2,607.9 613,612.5 584.5,612.5 582.8,607.9 510.2,607.9 510.2,654.8 687.3,654.8 687.3,607.9 "/>
<polygon class="st4" points="614.2,667 613,671.6 584.5,671.6 582.8,667 510.2,667 510.2,713.8 687.3,713.8 687.3,667 "/>
<polygon class="st0" points="377.8,454.7 317.7,454.7 319.7,428.2 375.7,428.2 "/>
<rect x="314.7" y="451.6" class="st0" width="67.2" height="6.1"/>
<path class="st4" d="M462.8,257.6H233.2c-3.4,0-6.1,2.7-6.1,6.1l0,0v140h241.8v-140C468.9,260.4,466.2,257.6,462.8,257.6
	L462.8,257.6z"/>
<path class="st0" d="M227.1,403.8v22.9c0,3.4,2.7,6.1,6.1,6.1l0,0h229.6c3.4,0,6.1-2.7,6.1-6.1l0,0v-22.9H227.1z"/>
<rect x="239.3" y="270.4" class="st1" width="217.9" height="122.2"/>
<circle class="st4" cx="348.3" cy="418" r="6.1"/>
<path class="st4" d="M865,727.1c-22.3,1.4-46.5-0.1-72.3,0V668c22.7,3.5,47,3.2,72.3,0V727.1z"/>
<polygon class="st4" points="831.4,673.3 825.3,673.3 827.4,553.9 829.4,553.9 "/>
<polygon class="st4" points="858.9,674.1 852.8,674.1 854.9,554.8 856.9,554.8 "/>
<polygon class="st4" points="807,674.1 800.9,674.1 802.9,554.8 805,554.8 "/>
<path class="st0" d="M836.5,477.6l9.9-15.2c-2.9-8.1-6.3-16-10.1-23.7l-6.4,5.2l5-7.8c-4.8-9.5-8.6-15.4-8.6-15.4
	s-19.8,31.2-26.4,64.2l12.7,19.6l-14-11.3c-0.5,3.8-0.8,7.7-0.8,11.6c0,39.1,12.8,70.8,28.5,70.8s28.5-31.7,28.5-70.8
	c0-12.1-2.7-24.8-6.5-36.5L836.5,477.6z"/>
<path class="st3" d="M864,479.6l9.9-15.2c-2.9-8.1-6.3-16-10.1-23.7l-6.4,5.2l5-7.8c-4.8-9.5-8.6-15.4-8.6-15.4
	s-19.8,31.2-26.4,64.2l12.7,19.6l-14-11.3c-0.5,3.8-0.8,7.7-0.8,11.6c0,39.1,12.8,70.8,28.5,70.8s28.5-31.7,28.5-70.8
	c0-12.1-2.7-24.8-6.5-36.5L864,479.6z"/>
<path class="st3" d="M812.1,479.6l9.9-15.2c-2.9-8.1-6.3-16-10.1-23.7l-6.4,5.2l5-7.8c-4.8-9.5-8.6-15.4-8.6-15.4
	s-19.8,31.2-26.4,64.2l12.7,19.6l-14-11.3c-0.5,3.8-0.8,7.7-0.8,11.6c0,39.1,12.8,70.8,28.5,70.8s28.5-31.7,28.5-70.8
	c0-12.1-2.7-24.8-6.5-36.5L812.1,479.6z"/>
<rect x="283.2" y="303.6" class="st4" width="7.2" height="7.2"/>
<rect x="283.2" y="315.2" class="st5" width="7.2" height="7.2"/>
<rect x="283.2" y="326.8" class="st5" width="7.2" height="7.2"/>
<rect x="283.2" y="338.4" class="st4" width="7.2" height="7.2"/>
<rect x="283.2" y="350" class="st4" width="7.2" height="7.2"/>
<path class="st3" d="M447.1,298.5h-30.8c-2.1-12.2-2.1-24.6,0-36.8h30.8C443.6,273.7,443.4,286.5,447.1,298.5z"/>
<path class="st6" d="M222.8,372.1l-12.7-3.1c-18,0-32.7-14.6-32.7-32.6c0-2.2,0.2-4.4,0.6-6.5l0,0c0-23.6,19.1-42.7,42.6-42.7l0,0
	c23.6,0,42.7,19.1,42.7,42.6l0,0C270.6,354.8,248.1,378.3,222.8,372.1z"/>
<circle class="st7" cx="236.6" cy="345.2" r="31.4"/>
<path class="st7" d="M216.2,361.6c0,0-9.5,32.7-15,35.5s43.6,6.8,43.6,6.8s-1.4-31.4,1.4-34.1S216.2,361.6,216.2,361.6z"/>
<path class="st6" d="M265.3,563.4c0,0,61.4-5.5,69.5,15s-5.5,141.8-5.5,141.8h-25.9v-99.5c0,0-110.5-31.4-110.5-42.3
	S265.3,563.4,265.3,563.4z"/>
<path class="st6" d="M325.3,714.8l13.6,5.5c0,0,16.4-1.4,9.5,10.9c-4,7.2-11,12.2-19.1,13.6c0,0-25.9,9.5-27.3,0s6.8-28.6,6.8-28.6
	L325.3,714.8z"/>
<path class="st6" d="M231.2,563.4c0,0,61.4-5.5,69.5,15s-5.5,141.8-5.5,141.8h-25.9v-99.5c0,0-78.4-18.2-78.4-29.1
	c0-5.1-5.3-31.2,4.1-36.7C205.6,548.8,231.2,563.4,231.2,563.4z"/>
<path class="st6" d="M291.2,714.8l13.6,5.5c0,0,16.4-1.4,9.5,10.9c-4,7.2-11,12.2-19.1,13.6c0,0-25.9,9.5-27.3,0s6.8-28.6,6.8-28.6
	L291.2,714.8z"/>
<path class="st8" d="M202.5,393l41,4.5c13,1.4,23.6,11,26.3,23.8l15.9,75.4c0,0,5.5,75-5.5,79.1s-25.9-16.4-46.4-13.6
	s-47,8.9-47,8.9s-4.2-134.2-4.8-145.2C181,403.7,202.5,393,202.5,393z"/>
<path class="st7" d="M299.6,567.3l16.8,9.9c0,0,30.2-4.3,29.2,6.3s-33.9,8.6-33.9,8.6l-20.3-12.5L299.6,567.3z"/>
<circle class="st6" cx="175.7" cy="299.5" r="20.3"/>
<path class="st6" d="M194.4,288.6c0-11.2-9.1-20.2-20.3-20.2c-1.3,0-2.7,0.1-4,0.4c10.1-4.8,22.2-0.5,27,9.7
	c4.8,10.1,0.5,22.2-9.7,27c-1.5,0.7-3.1,1.2-4.7,1.5C189.9,303.6,194.4,296.4,194.4,288.6z"/>
<path class="st6" d="M211.8,300.1l27.3-5l21,13.2c10.5,6.6,16.3,18.8,14.7,31.1l-21-5.3l-4.7-11.8l-5.6,9.2l-29.3,37.8l-16.5-10.5
	l-14.7-23L211.8,300.1z"/>
<path class="st8" d="M234.3,404.6l13.6-6.8c0,0,28.6,4.1,34.1,23.2s30,151.4,30,151.4l-23.2,10.9l-32.7-80.5L234.3,404.6z"/>
<polygon class="st9" points="245.9,458.2 259.6,511.2 283.8,570.7 282.9,572.8 254.1,512.2 "/>
<polygon class="st4" points="144.1,750.4 139.3,748.7 185.9,610.2 192.6,612.6 "/>
<polygon class="st4" points="322.3,750.4 327.1,748.7 280.5,610.2 273.7,612.6 "/>
<polygon class="st4" points="223.8,779 228.9,779 230.4,617.1 223.3,617.1 "/>
<path class="st3" d="M132.3,528.9l14,56.4c4,16.1,16.5,28.7,32.6,32.7l0,0c38.9,9.7,79.7,9.5,118.5-0.8l20.9-5.5
	c12.1-3.2,21.2-13.6,22.1-26.1c0.3-4.4-0.5-8.9-2.3-12.9c-0.1-0.2-0.2-0.3-0.2-0.5c-5.5-11.4-16.9-18.8-29.6-19.1l-22.1-0.7
	l-80.4-35.6c0,0-27.7-14.1-50.4-15.6C140.3,500.1,128.7,514.2,132.3,528.9z"/>
<rect x="543.3" y="351.3" class="st0" width="79.4" height="107.9"/>
<rect x="552.4" y="363.8" class="st1" width="61.1" height="83"/>
<rect x="576.5" y="385.5" class="st4" width="29.6" height="3.4"/>
<rect x="559.9" y="383.6" class="st4" width="7.2" height="7.2"/>
<rect x="576.5" y="399.7" class="st4" width="29.6" height="3.4"/>
<rect x="559.9" y="397.9" class="st4" width="7.2" height="7.2"/>
<rect x="576.5" y="414" class="st4" width="29.6" height="3.4"/>
<rect x="559.9" y="412.1" class="st4" width="7.2" height="7.2"/>
<path class="st4" d="M583,354.4L583,354.4c1.7,0,3.1,1.4,3.1,3.1l0,0c0,1.7-1.4,3.1-3.1,3.1l0,0c-1.7,0-3.1-1.4-3.1-3.1l0,0
	C579.9,355.7,581.3,354.4,583,354.4z"/>
<g>
	<path class="st10" d="M59.8,54.8h19.1c-0.7-10.2-8.9-18.3-19.1-19V54.8z"/>
	<path class="st11" d="M73.5,70.1c3.1-3.3,5.1-7.7,5.4-12.5H61L73.5,70.1z"/>
	<path class="st12" d="M57,57.7V35.8c-10.7,0.7-19.1,9.6-19.1,20.5c0,11.3,9.2,20.5,20.5,20.5c4.9,0,9.5-1.8,13-4.7L57,57.7z"/>
</g>
<g>
	<path class="st13" d="M59.8,118.4h19.1C78.2,108.2,70,100,59.8,99.3V118.4z"/>
	<path class="st14" d="M73.5,133.7c3.1-3.3,5.1-7.7,5.4-12.5H61L73.5,133.7z"/>
	<path class="st12" d="M57,121.2V99.3c-10.7,0.7-19.1,9.6-19.1,20.5c0,11.3,9.2,20.5,20.5,20.5c4.9,0,9.5-1.8,13-4.7L57,121.2z"/>
</g>
<g>
	<path class="st15" d="M59.8,181.9h19.1c-0.7-10.2-8.8-18.4-19.1-19.1C59.8,162.8,59.8,181.9,59.8,181.9z"/>
	<path class="st16" d="M73.5,197.3c3.1-3.3,5.1-7.7,5.4-12.5H61L73.5,197.3z"/>
	<path class="st12" d="M57,184.8v-21.9c-10.7,0.7-19.1,9.6-19.1,20.5c0,11.3,9.2,20.5,20.5,20.5c4.9,0,9.5-1.8,13-4.7L57,184.8z"/>
</g>
<g>
	<path id="Combined-Shape_3_" class="st17" d="M468.3,168l0.1,9.8c-9.6,1.2-17,9.4-17,19.2c0,4.5,1.6,8.7,4.2,12l-7,6.9
		c-4.3-5.1-6.9-11.7-6.9-18.9C441.7,181.8,453.4,169.3,468.3,168z"/>
	<path id="Combined-Shape_4_" class="st18" d="M470.8,168.2h-0.2c16,0,29,13,29,29.1s-13,29.1-29,29.1c-7.8,0-14.8-3.1-20-8.1l6.7-7
		c3.5,3.3,8.1,5.3,13.3,5.3c10.6,0,19.3-8.7,19.3-19.3s-8.5-19.2-19.1-19.3L470.8,168.2z"/>
</g>
<g>
	<rect id="Rectangle" x="296.7" y="306.2" class="st18" width="25.2" height="6.8"/>
	<rect id="Rectangle-Copy-9" x="296.7" y="344.5" class="st18" width="26.7" height="6.8"/>
	<rect id="Rectangle-Copy-3" x="296.7" y="319" class="st18" width="37.1" height="6.8"/>
	<rect id="Rectangle-Copy-6" x="296.7" y="331.8" class="st18" width="20.8" height="6.8"/>
	<rect id="Rectangle-Copy" x="321.9" y="306.2" class="st17" width="48.7" height="6.8"/>
	<rect id="Rectangle-Copy-10" x="323.4" y="344.5" class="st17" width="51.4" height="6.8"/>
	<rect id="Rectangle-Copy-4" x="333.8" y="319" class="st17" width="41.6" height="6.8"/>
	<rect id="Rectangle-Copy-7" x="317.5" y="331.8" class="st17" width="27" height="6.8"/>
	<rect id="Rectangle-Copy-2" x="370.6" y="306.2" class="st19" width="30.3" height="6.8"/>
	<rect id="Rectangle-Copy-11" x="374.8" y="344.5" class="st19" width="31.8" height="6.8"/>
	<rect id="Rectangle-Copy-5" x="375.4" y="319" class="st19" width="37.1" height="6.8"/>
	<rect id="Rectangle-Copy-8" x="344.5" y="331.8" class="st19" width="48.7" height="6.8"/>
</g>
<g>
	<rect id="Rectangle_1_" x="181.8" y="127.2" class="st17" width="17.2" height="27.4"/>
	<rect id="Rectangle-Copy-12" x="205.3" y="113.5" class="st18" width="17.2" height="41.3"/>
	<rect id="Rectangle-Copy-13" x="228.6" y="134" class="st19" width="17.2" height="20.7"/>
</g>
<g>
	<path class="st1" d="M562.7,579.8l0.7-1.3l4.5-8.6l0.5-1c0.1-0.3,0.3-0.7,0.6-1.2c1,0,1.8,0,2.3,0c0.8,0,1.6,0,2.3,0l1.3,3.7l2.6,7
		l0.5,1.3c-1,0-1.6,0-1.8,0c-0.5,0-1.2,0-2.2,0c-0.3-1-0.6-2.1-1.1-3.4h-4.4c-0.5,1-1,2.2-1.6,3.4c-1.1,0-1.8,0-2,0
		C564.4,579.8,563.7,579.8,562.7,579.8z M569.5,573.8h2.7c-0.7-2.1-1.1-3.2-1.1-3.4c-0.4,0.9-0.7,1.6-1,2.1L569.5,573.8z"/>
	<path class="st1" d="M578.7,579.8c0.1-0.7,0.1-1.3,0.2-1.8s0.1-1.1,0.1-1.8s0.1-1.5,0.1-2.4s0.1-1.9,0.1-3c0.8,0,1.4,0,1.8,0
		c0.4,0,1,0,1.8,0c-0.1,1.1-0.2,2.1-0.2,2.9c0,0.8-0.1,1.7-0.1,2.7c0,1.7,0,2.8,0,3.4c-0.7,0-1.3,0-1.8,0
		C580.2,579.8,579.5,579.8,578.7,579.8z M579.3,569.7c0-0.7,0.1-1.2,0.1-1.7c0-0.1,0-0.3,0-0.5c0.7,0,1.3,0,1.8,0c0.7,0,1.2,0,1.7,0
		c0,0.2,0,0.3,0,0.5l-0.1,1.1c0,0.2,0,0.4,0,0.6c-0.6,0-1.1,0-1.7,0C580.5,569.7,579.9,569.7,579.3,569.7z"/>
	<path class="st1" d="M584.4,579.8l0.3-3.9l0.1-2.2c0-0.4,0-0.8,0-1.2s0-1,0-1.6c0.7,0,1.3,0,1.7,0c0.5,0,1,0,1.7,0v1
		c0.2-0.3,0.4-0.4,0.6-0.6c0.1-0.1,0.3-0.2,0.5-0.3s0.4-0.2,0.6-0.2s0.4-0.1,0.6-0.1c0.2,0,0.4,0,0.7,0.1c0,0.6,0,1.2,0,1.6l0.1,1.4
		c-0.3-0.1-0.6-0.1-0.9-0.1c-0.4,0-0.7,0.1-0.9,0.2c-0.3,0.1-0.5,0.3-0.7,0.5s-0.4,0.5-0.5,0.8s-0.2,0.8-0.2,1.5s-0.1,1.4-0.1,2.3
		c0,0.3,0,0.7,0,1.1c-0.6,0-1.1,0-1.7,0C585.7,579.8,585.1,579.8,584.4,579.8z"/>
	<path class="st1" d="M592.1,579.8l0.2-1.9l0.3-6.6l0.1-3.5c0.8,0,1.4,0,1.8,0c0.5,0,1.1,0,1.8,0l-0.2,2.7l-0.3,6.6l-0.1,2.7
		c-0.6,0-1.2,0-1.7,0H592.1z"/>
	<path class="st1" d="M597.7,579.8c0.1-0.7,0.1-1.3,0.2-1.8s0.1-1.1,0.1-1.8s0.1-1.5,0.1-2.4s0.1-1.9,0.1-3c0.8,0,1.4,0,1.8,0
		c0.4,0,1,0,1.8,0c-0.1,1.1-0.2,2.1-0.2,2.9c0,0.8-0.1,1.7-0.1,2.7c0,1.7,0,2.8,0,3.4c-0.7,0-1.3,0-1.8,0
		C599.1,579.8,598.5,579.8,597.7,579.8z M598.2,569.7c0-0.7,0.1-1.2,0.1-1.7c0-0.1,0-0.3,0-0.5c0.7,0,1.3,0,1.8,0c0.7,0,1.2,0,1.7,0
		c0,0.2,0,0.3,0,0.5l-0.1,1.1c0,0.2,0,0.4,0,0.6c-0.6,0-1.1,0-1.7,0C599.5,569.7,598.9,569.7,598.2,569.7z"/>
	<path class="st1" d="M603.2,579.8c0.2-1.3,0.3-2.8,0.4-4.4c0.1-1.6,0.1-3.1,0.2-4.6c0.7,0,1.3,0,1.8,0c0.6,0,1.2,0,1.7,0l-0.1,1.2
		c0.2-0.2,0.4-0.4,0.5-0.5s0.3-0.2,0.5-0.4c0.2-0.1,0.4-0.2,0.7-0.3s0.5-0.1,0.8-0.2c0.3,0,0.6-0.1,0.9-0.1c0.4,0,0.8,0,1.2,0.1
		s0.7,0.2,1,0.4s0.5,0.4,0.7,0.6s0.3,0.5,0.4,0.8s0.1,0.6,0.1,0.9c0,0.2,0,0.7-0.1,1.4l-0.2,3.2c0,0.6,0,1.2,0,1.7
		c-0.6,0-1.1,0-1.7,0c-0.7,0-1.3,0-1.9,0c0.1-0.5,0.1-1.3,0.2-2.4c0.1-1.1,0.1-1.8,0.1-2.2c0-0.7-0.1-1.1-0.4-1.4s-0.6-0.4-1-0.4
		c-0.3,0-0.7,0.1-1,0.3s-0.5,0.5-0.7,1s-0.3,1.1-0.3,2.1s-0.1,2-0.1,3c-0.6,0-1.2,0-1.7,0C604.6,579.8,603.9,579.8,603.2,579.8z"/>
	<path class="st1" d="M624.3,577.1c-0.1,0.4-0.2,1.2-0.4,2.5c-0.7,0.1-1.3,0.2-1.7,0.3c-0.5,0-0.9,0.1-1.4,0.1c-0.7,0-1.3,0-1.9-0.1
		c-0.6-0.1-1.1-0.3-1.5-0.5s-0.8-0.6-1.1-0.9s-0.5-0.8-0.7-1.3s-0.2-1-0.2-1.6c0-0.7,0.1-1.5,0.4-2.2c0.3-0.7,0.7-1.3,1.2-1.7
		s1-0.7,1.6-0.9s1.2-0.3,1.9-0.3s1.3,0.1,1.9,0.2c0.6,0.2,1.1,0.4,1.5,0.8s0.7,0.8,0.9,1.3s0.3,1,0.3,1.6c0,0.3,0,0.7-0.1,1.1h-6.2
		c0,0.1,0,0.2,0,0.3c0,0.6,0.2,1.1,0.7,1.4s1,0.4,1.7,0.4c0.4,0,0.8,0,1.3-0.1C622.9,577.5,623.5,577.3,624.3,577.1z M618.9,574.3
		h2.9c0-0.1,0-0.2,0-0.3c0-0.3-0.1-0.6-0.2-0.8c-0.1-0.2-0.3-0.4-0.5-0.5s-0.4-0.1-0.7-0.1c-0.2,0-0.3,0-0.5,0.1s-0.3,0.1-0.4,0.2
		c-0.1,0.1-0.2,0.2-0.3,0.4s-0.2,0.3-0.2,0.4C618.9,573.9,618.9,574,618.9,574.3z"/>
	<path class="st1" d="M626.1,579.6c0-0.3,0-0.5-0.1-0.8c0-0.3-0.1-0.7-0.1-1.2l-0.1-0.6c0.6,0.2,1.1,0.4,1.5,0.5s0.8,0.2,1.1,0.2
		s0.5,0,0.7-0.1s0.3-0.1,0.4-0.2s0.1-0.2,0.1-0.3s0-0.2-0.1-0.3s-0.2-0.2-0.4-0.4c-0.5-0.4-0.9-0.7-1.3-1c-0.4-0.3-0.6-0.5-0.8-0.8
		c-0.2-0.2-0.3-0.5-0.4-0.7s-0.1-0.5-0.1-0.8c0-0.5,0.1-0.9,0.4-1.4c0.3-0.4,0.7-0.7,1.2-0.9s1.2-0.3,2-0.3s1.9,0.1,3.1,0.3l0.1,2.5
		c-0.7-0.3-1.4-0.4-2-0.4c-0.5,0-0.8,0-1,0.1s-0.3,0.2-0.3,0.4c0,0.1,0,0.1,0,0.2s0.1,0.1,0.1,0.2c0.1,0.1,0.1,0.1,0.2,0.2
		c0.1,0.1,0.3,0.2,0.7,0.5s0.6,0.4,0.8,0.6c0.3,0.3,0.6,0.5,0.8,0.7s0.3,0.5,0.4,0.7c0.1,0.2,0.1,0.5,0.1,0.8c0,0.4-0.1,0.8-0.3,1.1
		s-0.5,0.6-0.9,0.9s-0.8,0.4-1.3,0.5s-1,0.1-1.5,0.1c-0.3,0-0.8,0-1.3-0.1C627.4,579.9,626.8,579.8,626.1,579.6z"/>
</g>
<g>
	<path class="st1" d="M562.6,522.5c-0.1-1.2-0.2-2.2-0.3-3c0.7,0.3,1.2,0.5,1.8,0.6c0.5,0.1,1,0.2,1.4,0.2c0.5,0,0.9-0.1,1.2-0.2
		c0.3-0.2,0.5-0.4,0.5-0.7c0-0.1,0-0.2,0-0.3s-0.1-0.2-0.2-0.3c-0.1-0.1-0.2-0.2-0.4-0.4l-1.7-1.4c-0.4-0.3-0.7-0.6-0.8-0.7
		c-0.3-0.3-0.6-0.6-0.7-0.8c-0.2-0.3-0.3-0.5-0.4-0.8c-0.1-0.3-0.1-0.5-0.1-0.8c0-0.4,0.1-0.7,0.2-1.1c0.1-0.3,0.3-0.7,0.6-1
		s0.6-0.6,1-0.8s0.9-0.4,1.3-0.4c0.5-0.1,1-0.1,1.5-0.1c1,0,2.1,0.1,3.2,0.3c0,0.4,0,0.8,0.1,1.1c0,0.3,0.1,0.9,0.2,1.8
		c-0.5-0.2-1-0.4-1.5-0.5c-0.4-0.1-0.8-0.1-1.2-0.1c-0.5,0-0.8,0.1-1.1,0.3s-0.5,0.4-0.5,0.6c0,0.1,0,0.2,0.1,0.3s0.1,0.2,0.3,0.4
		c0.1,0.2,0.3,0.3,0.5,0.5s0.5,0.4,1,0.8l0.6,0.5c0.2,0.2,0.4,0.3,0.6,0.6s0.4,0.4,0.6,0.6s0.3,0.4,0.4,0.6s0.1,0.4,0.2,0.5
		c0,0.2,0.1,0.4,0.1,0.6c0,0.5-0.1,1-0.4,1.5s-0.6,0.9-1.1,1.2s-1,0.5-1.5,0.6c-0.6,0.1-1.1,0.2-1.8,0.2
		C565.3,523,564.1,522.8,562.6,522.5z"/>
	<path class="st1" d="M572.5,522.7c0.1-0.9,0.2-1.6,0.2-2.2c0.1-1.2,0.2-2.5,0.3-4.1c0.1-1,0.1-2,0.1-3c0-0.9,0-1.9,0-2.8
		c0.7,0,1.3,0,1.8,0c0.6,0,1.2,0,1.8,0l-0.2,2.1c0,0.4-0.1,1.1-0.1,2.1c0.2-0.2,0.4-0.4,0.5-0.5s0.3-0.2,0.4-0.3s0.3-0.2,0.5-0.3
		s0.3-0.1,0.5-0.2s0.4-0.1,0.7-0.1s0.5,0,0.8,0c0.5,0,1,0.1,1.4,0.2c0.5,0.1,0.9,0.3,1.2,0.6s0.6,0.6,0.7,0.9
		c0.1,0.3,0.2,0.7,0.2,1.1c0,0.2,0,0.4,0,0.6c0,0.3,0,0.6-0.1,1l-0.2,3c0,0.4,0,0.7,0,0.9s0,0.5,0,0.9c-0.6,0-1.2,0-1.8,0
		s-1.3,0-1.9,0c0.1-0.8,0.2-1.7,0.3-2.7s0.1-1.8,0.1-2.3c0-0.6-0.1-0.9-0.3-1.2s-0.5-0.3-0.9-0.3c-0.3,0-0.6,0.1-0.9,0.2
		c-0.2,0.1-0.4,0.3-0.6,0.6c-0.2,0.2-0.3,0.5-0.4,0.9c-0.1,0.5-0.2,1.2-0.3,2.2c0,0.5-0.1,1.4-0.1,2.5c-0.6,0-1.1,0-1.7,0
		C573.9,522.7,573.2,522.7,572.5,522.7z"/>
	<path class="st1" d="M584.8,522.7c0.1-0.7,0.1-1.3,0.2-1.8s0.1-1.1,0.1-1.8s0.1-1.5,0.1-2.4s0.1-1.9,0.1-3c0.8,0,1.4,0,1.8,0
		c0.4,0,1,0,1.8,0c-0.1,1.1-0.2,2.1-0.2,2.9c0,0.8-0.1,1.7-0.1,2.7c0,1.7,0,2.8,0,3.4c-0.7,0-1.3,0-1.8,0
		C586.2,522.7,585.6,522.7,584.8,522.7z M585.3,512.6c0-0.7,0.1-1.2,0.1-1.7c0-0.1,0-0.3,0-0.5c0.7,0,1.3,0,1.8,0c0.7,0,1.2,0,1.7,0
		c0,0.2,0,0.3,0,0.5l-0.1,1.1c0,0.2,0,0.4,0,0.6c-0.6,0-1.1,0-1.7,0C586.6,512.6,586,512.6,585.3,512.6z"/>
	<path class="st1" d="M590.2,526.8c0.1-1.2,0.2-2.4,0.3-3.6c0.1-2,0.2-3.8,0.3-5.1s0.1-2.8,0.1-4.1c1.2-0.2,2.1-0.3,2.8-0.4
		c0.7-0.1,1.3-0.1,2-0.1c0.8,0,1.6,0.1,2.3,0.3s1.3,0.5,1.7,0.9s0.8,1,1,1.6s0.3,1.3,0.3,1.9c0,0.6-0.1,1.2-0.3,1.8
		s-0.4,1.1-0.8,1.6s-0.8,0.8-1.3,1s-1,0.3-1.6,0.3c-0.3,0-0.6,0-0.9-0.1c-0.3-0.1-0.6-0.1-0.9-0.2s-0.5-0.2-0.7-0.3
		s-0.4-0.3-0.7-0.5l-0.1,2.5c0,1.1-0.1,2-0.1,2.5c-0.7,0-1.3,0-1.8,0C591.6,526.8,591,526.8,590.2,526.8z M594.2,516.2
		c0,0.3-0.1,0.5-0.1,0.6c0,0.2,0,0.4-0.1,0.7c0,0.3,0,0.5,0,0.7c0,0.5,0.1,0.9,0.2,1.2c0.1,0.3,0.4,0.6,0.6,0.8s0.6,0.3,0.9,0.3
		c0.3,0,0.6-0.1,0.9-0.3c0.3-0.2,0.5-0.5,0.6-0.8s0.2-0.8,0.2-1.2c0-0.6-0.2-1.1-0.5-1.5s-0.8-0.6-1.4-0.6
		C595.2,516,594.7,516.1,594.2,516.2z"/>
	<path class="st1" d="M602,526.8c0.1-1.2,0.2-2.4,0.3-3.6c0.1-2,0.2-3.8,0.3-5.1s0.1-2.8,0.1-4.1c1.2-0.2,2.1-0.3,2.8-0.4
		c0.7-0.1,1.3-0.1,2-0.1c0.8,0,1.6,0.1,2.3,0.3s1.3,0.5,1.7,0.9s0.8,1,1,1.6s0.3,1.3,0.3,1.9c0,0.6-0.1,1.2-0.3,1.8
		s-0.4,1.1-0.8,1.6s-0.8,0.8-1.3,1s-1,0.3-1.6,0.3c-0.3,0-0.6,0-0.9-0.1c-0.3-0.1-0.6-0.1-0.9-0.2s-0.5-0.2-0.7-0.3
		s-0.4-0.3-0.7-0.5l-0.1,2.5c0,1.1-0.1,2-0.1,2.5c-0.7,0-1.3,0-1.8,0C603.4,526.8,602.8,526.8,602,526.8z M606,516.2
		c0,0.3-0.1,0.5-0.1,0.6c0,0.2,0,0.4-0.1,0.7c0,0.3,0,0.5,0,0.7c0,0.5,0.1,0.9,0.2,1.2c0.1,0.3,0.4,0.6,0.6,0.8s0.6,0.3,0.9,0.3
		c0.3,0,0.6-0.1,0.9-0.3c0.3-0.2,0.5-0.5,0.6-0.8s0.2-0.8,0.2-1.2c0-0.6-0.2-1.1-0.5-1.5s-0.8-0.6-1.4-0.6
		C607,516,606.5,516.1,606,516.2z"/>
	<path class="st1" d="M614,522.7c0.1-0.7,0.1-1.3,0.2-1.8s0.1-1.1,0.1-1.8s0.1-1.5,0.1-2.4s0.1-1.9,0.1-3c0.8,0,1.4,0,1.8,0
		c0.4,0,1,0,1.8,0c-0.1,1.1-0.2,2.1-0.2,2.9c0,0.8-0.1,1.7-0.1,2.7c0,1.7,0,2.8,0,3.4c-0.7,0-1.3,0-1.8,0
		C615.5,522.7,614.8,522.7,614,522.7z M614.6,512.6c0-0.7,0.1-1.2,0.1-1.7c0-0.1,0-0.3,0-0.5c0.7,0,1.3,0,1.8,0c0.7,0,1.2,0,1.7,0
		c0,0.2,0,0.3,0,0.5L618,512c0,0.2,0,0.4,0,0.6c-0.6,0-1.1,0-1.7,0C615.8,512.6,615.2,512.6,614.6,512.6z"/>
	<path class="st1" d="M619.6,522.7c0.2-1.3,0.3-2.8,0.4-4.4c0.1-1.6,0.1-3.1,0.2-4.6c0.7,0,1.3,0,1.8,0c0.6,0,1.2,0,1.7,0l-0.1,1.2
		c0.2-0.2,0.4-0.4,0.5-0.5s0.3-0.2,0.5-0.4c0.2-0.1,0.4-0.2,0.7-0.3s0.5-0.1,0.8-0.2c0.3,0,0.6-0.1,0.9-0.1c0.4,0,0.8,0,1.2,0.1
		s0.7,0.2,1,0.4s0.5,0.4,0.7,0.6s0.3,0.5,0.4,0.8s0.1,0.6,0.1,0.9c0,0.2,0,0.7-0.1,1.4l-0.2,3.2c0,0.6,0,1.2,0,1.7
		c-0.6,0-1.1,0-1.7,0c-0.7,0-1.3,0-1.9,0c0.1-0.5,0.1-1.3,0.2-2.4c0.1-1.1,0.1-1.8,0.1-2.2c0-0.7-0.1-1.1-0.4-1.4s-0.6-0.4-1-0.4
		c-0.3,0-0.7,0.1-1,0.3s-0.5,0.5-0.7,1s-0.3,1.1-0.3,2.1s-0.1,2-0.1,3c-0.6,0-1.2,0-1.7,0C620.9,522.7,620.3,522.7,619.6,522.7z"/>
	<path class="st1" d="M632.6,523.8c0.8,0.3,1.4,0.4,2,0.5s1.1,0.2,1.5,0.2c0.3,0,0.6,0,0.8-0.1c0.3-0.1,0.5-0.2,0.6-0.3
		s0.3-0.2,0.4-0.4c0.1-0.2,0.2-0.3,0.3-0.5s0.1-0.4,0.1-0.7s0-0.6,0.1-1c-0.2,0.2-0.4,0.4-0.6,0.5c-0.2,0.1-0.4,0.2-0.6,0.4
		c-0.2,0.1-0.5,0.2-0.8,0.3s-0.6,0.1-0.9,0.1c-0.7,0-1.4-0.2-2-0.5s-1-0.8-1.3-1.5s-0.4-1.3-0.4-2c0-0.8,0.2-1.6,0.5-2.3
		s0.8-1.3,1.4-1.7c0.6-0.5,1.2-0.8,1.9-1s1.5-0.3,2.4-0.3c0.5,0,1.1,0,1.7,0.1c0.6,0.1,1.5,0.2,2.7,0.4l-0.2,2.9l-0.2,3.2
		c0,0.2,0,0.4,0,0.6l-0.1,2.9c0,0.4-0.1,0.7-0.1,1c-0.1,0.3-0.2,0.6-0.3,0.8s-0.3,0.5-0.6,0.7c-0.2,0.2-0.5,0.4-0.8,0.5
		s-0.7,0.2-1.1,0.3c-0.5,0.1-0.9,0.1-1.4,0.1c-0.3,0-0.6,0-1,0s-0.8-0.1-1.3-0.1s-0.8-0.1-1.1-0.2s-0.7-0.1-1.2-0.3l-0.1-1.2
		C632.7,525,632.7,524.6,632.6,523.8z M638.6,516.2c-0.4-0.1-0.7-0.1-1-0.1c-0.5,0-1,0.1-1.4,0.3s-0.7,0.5-0.9,0.9s-0.3,0.8-0.3,1.3
		c0,0.3,0.1,0.6,0.2,0.9c0.1,0.3,0.3,0.5,0.6,0.6s0.5,0.2,0.8,0.2c0.4,0,0.8-0.2,1.1-0.5s0.6-0.7,0.7-1.3S638.6,517.3,638.6,516.2z"
		/>
</g>
<g>
	<path class="st1" d="M580,638.6c-0.1,0.3-0.2,0.8-0.3,1.4s-0.2,1.1-0.2,1.4c-1.3,0.2-2.4,0.3-3.4,0.3c-0.9,0-1.8-0.1-2.7-0.4
		c-0.8-0.2-1.6-0.6-2.3-1.2c-0.7-0.5-1.2-1.2-1.5-1.9s-0.4-1.6-0.4-2.5c0-1.1,0.2-2,0.6-2.9c0.4-0.8,1-1.6,1.7-2.1
		c0.7-0.6,1.6-1,2.4-1.2c0.9-0.2,1.8-0.4,2.7-0.4s1.9,0.1,3.2,0.3v0.7c0,0.3,0,0.7,0.1,1.1l0.1,1c-0.7-0.2-1.2-0.3-1.7-0.3
		s-0.8-0.1-1.2-0.1c-0.8,0-1.5,0.2-2.1,0.5s-1.1,0.8-1.5,1.4s-0.5,1.3-0.5,2s0.2,1.2,0.5,1.7s0.7,0.8,1.2,1.1s1.2,0.4,1.9,0.4
		c0.4,0,0.9,0,1.4-0.1S579.3,638.8,580,638.6z"/>
	<path class="st1" d="M586.8,632.3c0.7,0,1.4,0.1,2.1,0.3c0.7,0.2,1.2,0.5,1.7,1c0.5,0.4,0.8,0.9,1,1.5s0.3,1.2,0.3,1.8
		s-0.1,1.2-0.3,1.8s-0.5,1.1-1,1.6s-1.1,0.9-1.8,1.1s-1.5,0.4-2.3,0.4c-0.7,0-1.5-0.1-2.1-0.3s-1.3-0.5-1.7-0.9
		c-0.5-0.4-0.8-0.9-1-1.5s-0.3-1.2-0.3-1.8s0.1-1.2,0.3-1.8s0.6-1.1,1.1-1.6s1.1-0.8,1.8-1.1S586.1,632.3,586.8,632.3z M586.8,634.9
		c-0.4,0-0.7,0.1-1,0.3s-0.5,0.5-0.7,0.8c-0.1,0.4-0.2,0.8-0.2,1.2c0,0.6,0.2,1.1,0.5,1.5c0.3,0.3,0.7,0.5,1.2,0.5
		c0.4,0,0.7-0.1,1-0.3s0.5-0.5,0.7-0.9s0.2-0.8,0.2-1.2s-0.1-0.7-0.2-1s-0.3-0.5-0.6-0.7S587.1,634.9,586.8,634.9z"/>
	<path class="st1" d="M603.1,641.5c-0.7,0-1.2,0-1.7,0c-0.6,0-1.1,0-1.7,0v-1.2c-0.2,0.3-0.4,0.5-0.5,0.6s-0.3,0.2-0.5,0.3
		s-0.4,0.2-0.6,0.3c-0.2,0.1-0.5,0.1-0.7,0.2s-0.6,0.1-0.8,0.1c-0.5,0-0.9-0.1-1.3-0.2c-0.4-0.1-0.8-0.3-1.1-0.5s-0.5-0.6-0.6-0.9
		c-0.1-0.3-0.2-0.7-0.2-1.1c0-0.1,0-0.3,0-0.5l0.1-2c0-0.7,0.1-1.5,0.1-2.4c0-0.5,0-1.1,0-1.5c0.7,0,1.3,0,1.9,0c0.5,0,1.1,0,1.7,0
		l-0.3,3.3c0,0.5-0.1,0.9-0.1,1c0,0.2,0,0.3,0,0.4c0,0.6,0.1,1,0.4,1.2s0.5,0.3,0.9,0.3c0.1,0,0.3,0,0.4-0.1s0.3-0.1,0.4-0.2
		c0.1-0.1,0.2-0.2,0.3-0.3s0.2-0.2,0.3-0.4s0.2-0.4,0.2-0.6c0.1-0.3,0.1-0.7,0.2-1.2c0-0.3,0.1-0.9,0.1-1.8l0.1-1.8
		c0.8,0,1.4,0,1.9,0s1.1,0,1.6,0c-0.1,1.5-0.2,2.9-0.3,4.2C603.2,638.1,603.2,639.7,603.1,641.5z"/>
	<path class="st1" d="M605.1,641.5l0.3-3.9l0.1-2.2c0-0.4,0-0.8,0-1.2s0-1,0-1.6c0.7,0,1.3,0,1.7,0c0.5,0,1,0,1.7,0v1
		c0.2-0.3,0.4-0.4,0.6-0.6c0.1-0.1,0.3-0.2,0.5-0.3s0.4-0.2,0.6-0.2s0.4-0.1,0.6-0.1c0.2,0,0.4,0,0.7,0.1c0,0.6,0,1.2,0,1.6l0.1,1.4
		c-0.3-0.1-0.6-0.1-0.9-0.1c-0.4,0-0.7,0.1-0.9,0.2c-0.3,0.1-0.5,0.3-0.7,0.5s-0.4,0.5-0.5,0.8s-0.2,0.8-0.2,1.5s-0.1,1.4-0.1,2.3
		c0,0.3,0,0.7,0,1.1c-0.6,0-1.1,0-1.7,0C606.4,641.5,605.8,641.5,605.1,641.5z"/>
	<path class="st1" d="M612.8,641.5c0.1-0.7,0.1-1.3,0.2-1.8s0.1-1.1,0.1-1.8s0.1-1.5,0.1-2.4s0.1-1.9,0.1-3c0.8,0,1.4,0,1.8,0
		c0.4,0,1,0,1.8,0c-0.1,1.1-0.2,2.1-0.2,2.9c0,0.8-0.1,1.7-0.1,2.7c0,1.7,0,2.8,0,3.4c-0.7,0-1.3,0-1.8,0
		C614.3,641.5,613.6,641.5,612.8,641.5z M613.3,631.4c0-0.7,0.1-1.2,0.1-1.7c0-0.1,0-0.3,0-0.5c0.7,0,1.3,0,1.8,0c0.7,0,1.2,0,1.7,0
		c0,0.2,0,0.3,0,0.5l-0.1,1.1c0,0.2,0,0.4,0,0.6c-0.6,0-1.1,0-1.7,0C614.6,631.4,614,631.4,613.3,631.4z"/>
	<path class="st1" d="M627.2,638.9c-0.1,0.4-0.2,1.2-0.4,2.5c-0.7,0.1-1.3,0.2-1.7,0.3c-0.5,0-0.9,0.1-1.4,0.1c-0.7,0-1.3,0-1.9-0.1
		c-0.6-0.1-1.1-0.3-1.5-0.5s-0.8-0.6-1.1-0.9s-0.5-0.8-0.7-1.3s-0.2-1-0.2-1.6c0-0.7,0.1-1.5,0.4-2.2c0.3-0.7,0.7-1.3,1.2-1.7
		s1-0.7,1.6-0.9s1.2-0.3,1.9-0.3s1.3,0.1,1.9,0.2c0.6,0.2,1.1,0.4,1.5,0.8s0.7,0.8,0.9,1.3s0.3,1,0.3,1.6c0,0.3,0,0.7-0.1,1.1h-6.2
		c0,0.1,0,0.2,0,0.3c0,0.6,0.2,1.1,0.7,1.4s1,0.4,1.7,0.4c0.4,0,0.8,0,1.3-0.1C625.8,639.2,626.4,639.1,627.2,638.9z M621.8,636h2.9
		c0-0.1,0-0.2,0-0.3c0-0.3-0.1-0.6-0.2-0.8c-0.1-0.2-0.3-0.4-0.5-0.5s-0.4-0.1-0.7-0.1c-0.2,0-0.3,0-0.5,0.1s-0.3,0.1-0.4,0.2
		c-0.1,0.1-0.2,0.2-0.3,0.4s-0.2,0.3-0.2,0.4C621.8,635.6,621.8,635.8,621.8,636z"/>
	<path class="st1" d="M629.1,641.5l0.3-3.9l0.1-2.2c0-0.4,0-0.8,0-1.2s0-1,0-1.6c0.7,0,1.3,0,1.7,0c0.5,0,1,0,1.7,0v1
		c0.2-0.3,0.4-0.4,0.6-0.6c0.1-0.1,0.3-0.2,0.5-0.3s0.4-0.2,0.6-0.2s0.4-0.1,0.6-0.1c0.2,0,0.4,0,0.7,0.1c0,0.6,0,1.2,0,1.6l0.1,1.4
		c-0.3-0.1-0.6-0.1-0.9-0.1c-0.4,0-0.7,0.1-0.9,0.2c-0.3,0.1-0.5,0.3-0.7,0.5s-0.4,0.5-0.5,0.8s-0.2,0.8-0.2,1.5s-0.1,1.4-0.1,2.3
		c0,0.3,0,0.7,0,1.1c-0.6,0-1.1,0-1.7,0C630.4,641.5,629.8,641.5,629.1,641.5z"/>
</g>
<g>
	<path class="st1" d="M578.2,697.8l0.3-4.8l0.2-3.5v-1.6c0-0.5,0-0.9,0-1.3v-0.8c0.9,0,1.6,0,2.1,0c0.4,0,1,0,1.9,0
		c-0.1,1.7-0.2,3.2-0.3,4.5h4.8c0-0.5,0.1-1.1,0.1-2c0-0.8,0-1.4,0-1.7c0-0.2,0-0.4,0-0.8h2.1c0.2,0,0.8,0,1.8,0
		c-0.2,3-0.3,5.3-0.4,6.7c-0.1,1.5-0.1,3.2-0.1,5.3h-1.9c-0.3,0-1,0-2.1,0c0.1-1.4,0.2-3,0.3-4.9h-4.8l-0.1,4.9h-2
		C579.8,697.8,579.2,697.8,578.2,697.8z"/>
	<path class="st1" d="M598,688.6c0.7,0,1.4,0.1,2.1,0.3c0.7,0.2,1.2,0.5,1.7,1c0.5,0.4,0.8,0.9,1,1.5s0.3,1.2,0.3,1.8
		s-0.1,1.2-0.3,1.8s-0.5,1.1-1,1.6s-1.1,0.9-1.8,1.1s-1.5,0.4-2.3,0.4c-0.7,0-1.5-0.1-2.1-0.3s-1.3-0.5-1.7-0.9
		c-0.5-0.4-0.8-0.9-1-1.5s-0.3-1.2-0.3-1.8s0.1-1.2,0.3-1.8s0.6-1.1,1.1-1.6s1.1-0.8,1.8-1.1S597.2,688.6,598,688.6z M597.9,691.2
		c-0.4,0-0.7,0.1-1,0.3s-0.5,0.5-0.7,0.8c-0.1,0.4-0.2,0.8-0.2,1.2c0,0.6,0.2,1.1,0.5,1.5c0.3,0.3,0.7,0.5,1.2,0.5
		c0.4,0,0.7-0.1,1-0.3s0.5-0.5,0.7-0.9s0.2-0.8,0.2-1.2s-0.1-0.7-0.2-1s-0.3-0.5-0.6-0.7S598.3,691.2,597.9,691.2z"/>
	<path class="st1" d="M611,695.3c-0.1,0.5-0.2,1-0.3,1.4l-0.2,1.1c-0.6,0.1-1,0.2-1.4,0.2c-0.3,0-0.6,0.1-0.9,0.1
		c-0.5,0-0.9,0-1.3-0.1c-0.4-0.1-0.7-0.2-1-0.5c-0.3-0.2-0.4-0.5-0.5-0.8s-0.1-0.6-0.1-0.9c0-0.1,0-0.2,0-0.3s0-0.5,0.1-1l0.2-3
		h-1.4c0-0.4,0.1-0.9,0.1-1.6v-0.8h1.5c0-0.3,0.1-0.9,0.1-1.8l1.5-0.3c0.3-0.1,0.9-0.2,1.8-0.4c0,0.8-0.1,1.6-0.1,2.5h2
		c0,1.2-0.1,2-0.1,2.4h-2l-0.1,2.2c0,0.3,0,0.5,0,0.6c0,0.3,0,0.5,0.1,0.7s0.2,0.3,0.3,0.4c0.2,0.1,0.3,0.1,0.5,0.1
		c0.1,0,0.3,0,0.4,0C610.3,695.4,610.6,695.4,611,695.3z"/>
	<path class="st1" d="M620.8,695.2c-0.1,0.4-0.2,1.2-0.4,2.5c-0.7,0.1-1.3,0.2-1.7,0.3c-0.5,0-0.9,0.1-1.4,0.1c-0.7,0-1.3,0-1.9-0.1
		c-0.6-0.1-1.1-0.3-1.5-0.5s-0.8-0.6-1.1-0.9s-0.5-0.8-0.7-1.3s-0.2-1-0.2-1.6c0-0.7,0.1-1.5,0.4-2.2c0.3-0.7,0.7-1.3,1.2-1.7
		s1-0.7,1.6-0.9s1.2-0.3,1.9-0.3s1.3,0.1,1.9,0.2c0.6,0.2,1.1,0.4,1.5,0.8s0.7,0.8,0.9,1.3s0.3,1,0.3,1.6c0,0.3,0,0.7-0.1,1.1h-6.2
		c0,0.1,0,0.2,0,0.3c0,0.6,0.2,1.1,0.7,1.4s1,0.4,1.7,0.4c0.4,0,0.8,0,1.3-0.1C619.5,695.6,620.1,695.4,620.8,695.2z M615.4,692.3
		h2.9c0-0.1,0-0.2,0-0.3c0-0.3-0.1-0.6-0.2-0.8c-0.1-0.2-0.3-0.4-0.5-0.5s-0.4-0.1-0.7-0.1c-0.2,0-0.3,0-0.5,0.1s-0.3,0.1-0.4,0.2
		c-0.1,0.1-0.2,0.2-0.3,0.4s-0.2,0.3-0.2,0.4C615.5,691.9,615.5,692.1,615.4,692.3z"/>
	<path class="st1" d="M622.8,697.8l0.2-1.9l0.3-6.6l0.1-3.5c0.8,0,1.4,0,1.8,0c0.5,0,1.1,0,1.8,0l-0.2,2.7l-0.3,6.6l-0.1,2.7
		c-0.6,0-1.2,0-1.7,0H622.8z"/>
</g>
</svg>
